<svg id="Layer_1" data-name="Layer 1" xmlns="http://www.w3.org/2000/svg" viewBox="0 0 480 480"><defs><style>.cls-1{fill:#fff;}.cls-2{fill:#0a78ff;}</style></defs><title>favicon</title><path class="cls-1" d="M240,479.5A239.5,239.5,0,0,1,70.65,70.65a239.5,239.5,0,1,1,338.7,338.7A237.91,237.91,0,0,1,240,479.5Z"/><path class="cls-1" d="M240,1a239.06,239.06,0,0,1,93,459.22A239.06,239.06,0,0,1,147,19.78,237.55,237.55,0,0,1,240,1m0-1C107.45,0,0,107.45,0,240S107.45,480,240,480,480,372.55,480,240,372.55,0,240,0Z"/><path class="cls-2" d="M165.63,265.88l-45-13.25q-26-7.75-38.5-21.25a45.8,45.8,0,0,1-12.5-32.25q0-23.5,16.5-37.25t46.5-13.75h96.25v41.25h-96.5q-8,0-11.25,2.87a8.41,8.41,0,0,0-3.25,6.38A9.52,9.52,0,0,0,121,206q3.12,2.88,10.13,4.88l45.75,13.25q29,8.49,43.62,20.87t14.63,34.63a55,55,0,0,1-4.38,21.75,47.5,47.5,0,0,1-13.25,17.75q-8.88,7.5-22.5,12t-31.87,4.5H74.63V294.38h96q9.5,0,13.25-3.75a12,12,0,0,0,3.75-8.75,10.35,10.35,0,0,0-4.63-9.13Q178.37,269.63,165.63,265.88Z"/><path class="cls-2" d="M415.38,294.38v41.25h-72.5q-22.26,0-39.25-5.63t-28.25-16a66.24,66.24,0,0,1-17-25.25,91,91,0,0,1-5.75-33.12v-27.5A91.09,91.09,0,0,1,258.38,195a66.39,66.39,0,0,1,17-25.25q11.25-10.37,28.25-16t39.25-5.62h71.25v41.25H345.38q-23.25,0-31.75,9.12t-8.5,30.13v26.5q0,21,8.75,30.12t32.75,9.13Z"/></svg>